<?xml version="1.0" encoding="utf-8"?>
<!-- Generator: Adobe Illustrator 26.5.0, SVG Export Plug-In . SVG Version: 6.00 Build 0)  -->
<svg version="1.1" xmlns="http://www.w3.org/2000/svg" xmlns:xlink="http://www.w3.org/1999/xlink" x="0px" y="0px" width="100px"
	 height="100px" viewBox="0 0 100 100" style="enable-background:new 0 0 100 100;" xml:space="preserve">
<g id="Layer_2">
	<g>
		<g>
			<path style="fill:#5F6060;" d="M49.99,75.57c-10.57,0-21.94-4.13-32.89-11.95C8.92,57.77,3.87,51.98,3.66,51.74
				c-0.86-1-0.86-2.48,0-3.48c0.21-0.24,5.26-6.03,13.45-11.88c10.95-7.82,22.32-11.95,32.89-11.95c10.57,0,21.94,4.13,32.89,11.95
				c8.18,5.84,13.24,11.63,13.45,11.88c0.86,1,0.86,2.48,0,3.48c-0.21,0.24-5.26,6.03-13.45,11.88
				C71.93,71.44,60.56,75.57,49.99,75.57z M9.31,50c2.04,2.08,5.9,5.75,10.99,9.37c6.98,4.97,17.79,10.89,29.69,10.89
				s22.71-5.92,29.69-10.89c5.09-3.62,8.94-7.28,10.99-9.37c-2.04-2.08-5.9-5.75-10.99-9.37c-6.98-4.97-17.79-10.89-29.69-10.89
				S27.28,35.67,20.3,40.63C15.21,44.25,11.35,47.92,9.31,50z"/>
		</g>
		<g>
			<path style="fill:#5F6060;" d="M49.99,66.47c-9.08,0-16.47-7.39-16.47-16.47s7.39-16.47,16.47-16.47c3.99,0,7.85,1.45,10.85,4.08
				c1.1,0.97,1.21,2.65,0.25,3.75c-0.97,1.1-2.65,1.21-3.75,0.25c-2.03-1.78-4.64-2.76-7.35-2.76c-6.15,0-11.16,5.01-11.16,11.16
				s5.01,11.16,11.16,11.16c6.15,0,11.16-5.01,11.16-11.16c0-1.47,1.19-2.66,2.66-2.66s2.66,1.19,2.66,2.66
				C66.46,59.08,59.07,66.47,49.99,66.47z"/>
		</g>
		<g>
			<path style="fill:#5F6060;" d="M49.99,55.31c-2.93,0-5.31-2.38-5.31-5.31c0-2.93,2.38-5.31,5.31-5.31c2.93,0,5.31,2.38,5.31,5.31
				C55.3,52.93,52.92,55.31,49.99,55.31z"/>
		</g>
	</g>
</g>
<g id="Layer_2_copy_2">
	<g>
		<path style="fill:#484849;" d="M3.66,51.26c0.21-0.24,5.26-6.03,13.45-11.88c10.95-7.82,22.32-11.95,32.89-11.95
			c10.57,0,21.94,4.13,32.89,11.95c8.18,5.84,13.24,11.63,13.45,11.88c0.07,0.08,0.12,0.16,0.17,0.24c0.68-0.99,0.63-2.32-0.17-3.24
			c-0.21-0.24-5.26-6.03-13.45-11.88c-10.95-7.82-22.32-11.95-32.89-11.95c-10.57,0-21.94,4.13-32.89,11.95
			C8.92,42.23,3.87,48.02,3.66,48.26c-0.8,0.92-0.85,2.25-0.17,3.24C3.54,51.42,3.59,51.34,3.66,51.26z"/>
	</g>
</g>
</svg>
