<?xml version="1.0" encoding="utf-8"?>
<!-- Generator: Adobe Illustrator 26.5.0, SVG Export Plug-In . SVG Version: 6.00 Build 0)  -->
<svg version="1.1" xmlns="http://www.w3.org/2000/svg" xmlns:xlink="http://www.w3.org/1999/xlink" x="0px" y="0px" width="100px"
	 height="100px" viewBox="0 0 100 100" style="enable-background:new 0 0 100 100;" xml:space="preserve">
<g id="Layer_1" style="display:none;">
	<rect style="display:inline;fill:#1E1E1E;" width="100" height="100"/>
</g>
<g id="Layer_2">
	<g>
		<path style="fill:#FFFFFF;" d="M88.07,46.29H56.42c-1.79,0-3.24-1.45-3.24-3.24V11.4c0-1.79,1.45-3.24,3.24-3.24h31.65
			c1.79,0,3.24,1.45,3.24,3.24v31.65C91.31,44.84,89.86,46.29,88.07,46.29z"/>
		<path style="fill:#FFFFFF;" d="M43.58,46.29H11.93c-1.79,0-3.24-1.45-3.24-3.24V11.4c0-1.79,1.45-3.24,3.24-3.24h31.65
			c1.79,0,3.24,1.45,3.24,3.24v31.65C46.82,44.84,45.37,46.29,43.58,46.29z"/>
		<path style="fill:#FFFFFF;" d="M88.07,91.84H56.42c-1.79,0-3.24-1.45-3.24-3.24V56.95c0-1.79,1.45-3.24,3.24-3.24h31.65
			c1.79,0,3.24,1.45,3.24,3.24V88.6C91.31,90.39,89.86,91.84,88.07,91.84z"/>
		<path style="fill:#FFFFFF;" d="M43.58,91.84H11.93c-1.79,0-3.24-1.45-3.24-3.24V56.95c0-1.79,1.45-3.24,3.24-3.24h31.65
			c1.79,0,3.24,1.45,3.24,3.24V88.6C46.82,90.39,45.37,91.84,43.58,91.84z"/>
	</g>
</g>
<g id="Layer_3" style="display:none;">
	<g style="display:inline;">
		<g>
			<path style="fill:#FFFFFF;" d="M88.07,24.44H34.56c-1.79,0-3.24-1.45-3.24-3.24v-9.8c0-1.79,1.45-3.24,3.24-3.24h53.51
				c1.79,0,3.24,1.45,3.24,3.24v9.8C91.31,22.99,89.86,24.44,88.07,24.44z"/>
			<path style="fill:#FFFFFF;" d="M22.36,24.44h-9.8c-1.79,0-3.24-1.45-3.24-3.24v-9.8c0-1.79,1.45-3.24,3.24-3.24h9.8
				c1.79,0,3.24,1.45,3.24,3.24v9.8C25.6,22.99,24.15,24.44,22.36,24.44z"/>
		</g>
		<g>
			<path style="fill:#FFFFFF;" d="M88.07,46.91H34.56c-1.79,0-3.24-1.45-3.24-3.24v-9.8c0-1.79,1.45-3.24,3.24-3.24h53.51
				c1.79,0,3.24,1.45,3.24,3.24v9.8C91.31,45.46,89.86,46.91,88.07,46.91z"/>
			<path style="fill:#FFFFFF;" d="M22.36,46.91h-9.8c-1.79,0-3.24-1.45-3.24-3.24v-9.8c0-1.79,1.45-3.24,3.24-3.24h9.8
				c1.79,0,3.24,1.45,3.24,3.24v9.8C25.6,45.46,24.15,46.91,22.36,46.91z"/>
		</g>
		<g>
			<path style="fill:#FFFFFF;" d="M88.07,69.37H34.56c-1.79,0-3.24-1.45-3.24-3.24v-9.8c0-1.79,1.45-3.24,3.24-3.24h53.51
				c1.79,0,3.24,1.45,3.24,3.24v9.8C91.31,67.92,89.86,69.37,88.07,69.37z"/>
			<path style="fill:#FFFFFF;" d="M22.36,69.37h-9.8c-1.79,0-3.24-1.45-3.24-3.24v-9.8c0-1.79,1.45-3.24,3.24-3.24h9.8
				c1.79,0,3.24,1.45,3.24,3.24v9.8C25.6,67.92,24.15,69.37,22.36,69.37z"/>
		</g>
		<g>
			<path style="fill:#FFFFFF;" d="M88.07,91.84H34.56c-1.79,0-3.24-1.45-3.24-3.24v-9.8c0-1.79,1.45-3.24,3.24-3.24h53.51
				c1.79,0,3.24,1.45,3.24,3.24v9.8C91.31,90.39,89.86,91.84,88.07,91.84z"/>
			<path style="fill:#FFFFFF;" d="M22.36,91.84h-9.8c-1.79,0-3.24-1.45-3.24-3.24v-9.8c0-1.79,1.45-3.24,3.24-3.24h9.8
				c1.79,0,3.24,1.45,3.24,3.24v9.8C25.6,90.39,24.15,91.84,22.36,91.84z"/>
		</g>
	</g>
</g>
</svg>
