<?xml version="1.0" encoding="utf-8"?>
<!-- Generator: Adobe Illustrator 26.5.0, SVG Export Plug-In . SVG Version: 6.00 Build 0)  -->
<svg version="1.1" xmlns="http://www.w3.org/2000/svg" xmlns:xlink="http://www.w3.org/1999/xlink" x="0px" y="0px" width="100px"
	 height="100px" viewBox="0 0 100 100" style="enable-background:new 0 0 100 100;" xml:space="preserve">
<g id="Layer_1_copy_3" style="opacity:0.5;">
	<g id="g2221_00000018929769503951595140000017356267118279754880_" transform="translate(129.28571,-64.285714)">
	</g>
	<g>
		<g>
			<path style="fill-rule:evenodd;clip-rule:evenodd;fill:#4C4C4D;" d="M49.53,28.02c6.14-6.4,10.44-11.93,19.89-13.01
				c17.75-2.04,34.08,16.14,25.12,34.03c-2.55,5.1-7.75,11.16-13.49,17.1c-6.31,6.53-13.29,12.93-18.18,17.78L49.54,97.15
				L38.52,86.54C25.27,73.78,3.65,57.71,2.94,37.8C2.44,23.85,13.44,14.92,26.1,15.08C37.41,15.23,42.17,20.86,49.53,28.02
				L49.53,28.02L49.53,28.02z"/>
		</g>
	</g>
</g>
<g id="Layer_1_copy_4">
	<g id="g2221_00000060023013207230135950000000335277122111021459_" transform="translate(129.28571,-64.285714)">
	</g>
	<g>
		<g>
			<path style="fill-rule:evenodd;clip-rule:evenodd;fill:#EC008C;" d="M49.53,22.02c6.14-6.4,10.44-11.93,19.89-13.01
				c17.75-2.04,34.08,16.14,25.12,34.03c-2.55,5.1-7.75,11.16-13.49,17.1c-6.31,6.53-13.29,12.93-18.18,17.78L49.54,91.15
				L38.52,80.54C25.27,67.78,3.65,51.71,2.94,31.8C2.44,17.85,13.44,8.92,26.1,9.08C37.41,9.23,42.17,14.86,49.53,22.02L49.53,22.02
				L49.53,22.02z"/>
		</g>
	</g>
</g>
<g id="Layer_2">
</g>
<g id="Layer_3">
	<g>
		<path style="fill-rule:evenodd;clip-rule:evenodd;fill:#B21F6B;" d="M94.54,43.04c-2.55,5.1-7.75,11.16-13.49,17.1
			c-6.31,6.53-13.29,12.93-18.18,17.78L49.54,91.15L38.52,80.54C25.38,67.89,4.04,51.99,2.97,32.32c-0.05,0.81-0.07,1.63-0.04,2.48
			c0.71,19.91,22.33,35.98,35.59,48.74l11.02,10.61l13.33-13.23c4.89-4.85,11.87-11.25,18.18-17.78
			c5.75-5.95,10.94-12.01,13.49-17.1c2.02-4.03,2.74-8.07,2.47-11.89C96.82,37.06,96.04,40.05,94.54,43.04z"/>
	</g>
</g>
<g id="Layer_3_copy">
</g>
<g id="Layer_2_copy">
	<g>
		<path style="fill-rule:evenodd;clip-rule:evenodd;fill:#E24699;" d="M2.97,32.32C3.78,19.81,14.21,11.93,26.1,12.08
			c11.31,0.15,16.07,5.78,23.43,12.94c6.14-6.4,10.44-11.93,19.89-13.01c13.76-1.58,26.65,8.98,27.59,22.14
			C98,19.64,84.22,7.31,69.43,9.01c-9.46,1.08-13.75,6.61-19.89,13.01C42.17,14.86,37.41,9.23,26.1,9.08
			C13.44,8.92,2.44,17.85,2.94,31.8C2.94,31.97,2.96,32.15,2.97,32.32z"/>
	</g>
	<g>
	</g>
	<g>
	</g>
	<g>
	</g>
	<g>
	</g>
	<g>
	</g>
	<g>
	</g>
</g>
</svg>
