<?xml version="1.0" encoding="utf-8"?>
<!-- Generator: Adobe Illustrator 26.5.0, SVG Export Plug-In . SVG Version: 6.00 Build 0)  -->
<svg version="1.1" id="Layer_7" xmlns="http://www.w3.org/2000/svg" xmlns:xlink="http://www.w3.org/1999/xlink" x="0px" y="0px"
	 width="100px" height="100px" viewBox="0 0 100 100" style="enable-background:new 0 0 100 100;" xml:space="preserve">
<g>
	<g id="a">
		<path style="fill:#484849;" d="M72.17,17.85c5.82,0,11.59,3.25,14.69,8.27c1.59,2.57,3.77,7.86,0.53,14.33
			c-1.8,3.6-5.87,8.69-12.09,15.13c-3.87,4-8.09,8.04-11.81,11.61c-2.26,2.16-4.39,4.2-6.24,6.04l-7.78,7.72l-5.39-5.18
			c-2.18-2.1-4.51-4.23-6.98-6.48C25.66,58.86,11.42,45.89,10.94,32.5c-0.14-3.96,1.09-7.42,3.57-9.99
			c2.73-2.83,6.83-4.45,11.26-4.45H26c6.93,0.1,9.81,2.66,16.23,8.98c0.56,0.56,1.14,1.12,1.73,1.7l5.77,5.62l5.58-5.81
			c0.62-0.65,1.22-1.28,1.81-1.91c5.27-5.58,7.82-8.08,13.22-8.69C70.94,17.88,71.56,17.85,72.17,17.85 M72.17,9.85
			c-0.91,0-1.82,0.05-2.74,0.16c-9.46,1.08-13.75,6.61-19.89,13.01c-7.37-7.17-12.13-12.79-23.44-12.94c-0.11,0-0.22,0-0.34,0
			C13.25,10.07,2.44,18.97,2.94,32.8c0.71,19.91,22.33,35.98,35.59,48.74l11.02,10.61l13.33-13.23
			c4.89-4.85,11.87-11.25,18.18-17.78c5.75-5.95,10.94-12.01,13.49-17.1C103.04,27.07,88.8,9.85,72.17,9.85
			C72.17,9.85,72.17,9.85,72.17,9.85z"/>
	</g>
	<g id="b">
		<path style="fill-rule:evenodd;clip-rule:evenodd;fill:#5F6060;" d="M81.05,61.14c5.75-5.95,10.94-12.01,13.49-17.1
			c1.4-2.8,2.17-5.6,2.43-8.34c-1.2-12.95-13.95-23.25-27.55-21.69c-9.46,1.08-13.75,6.61-19.89,13.01
			c-7.36-7.16-12.12-12.79-23.43-12.94C14.35,13.93,4.03,21.62,3.01,33.87C4.44,53.28,25.51,69,38.52,81.54l11.02,10.61l13.33-13.23
			C67.76,74.07,74.74,67.67,81.05,61.14z M63.48,67.19c-2.26,2.16-4.39,4.2-6.24,6.04l-7.78,7.72l-5.39-5.18
			c-2.18-2.1-4.51-4.23-6.98-6.48C25.65,58.86,11.41,45.89,10.93,32.5c-0.14-3.96,1.09-7.42,3.57-9.99
			c2.73-2.83,6.83-4.45,11.26-4.45h0.23c6.93,0.1,9.81,2.66,16.23,8.98c0.56,0.56,1.14,1.12,1.73,1.7l5.77,5.62l5.58-5.81
			c0.62-0.65,1.22-1.28,1.81-1.91c5.27-5.58,7.82-8.08,13.22-8.69c0.6-0.07,1.22-0.1,1.83-0.1c5.82,0,11.59,3.25,14.69,8.27
			c1.59,2.57,3.77,7.86,0.53,14.33c-1.8,3.6-5.87,8.69-12.09,15.13C71.42,59.58,67.2,63.62,63.48,67.19L63.48,67.19z"/>
	</g>
</g>
<g>
</g>
<g>
</g>
<g>
</g>
<g>
</g>
<g>
</g>
<g>
</g>
</svg>
