<?xml version="1.0" encoding="utf-8"?>
<!-- Generator: Adobe Illustrator 26.5.0, SVG Export Plug-In . SVG Version: 6.00 Build 0)  -->
<svg version="1.1" xmlns="http://www.w3.org/2000/svg" xmlns:xlink="http://www.w3.org/1999/xlink" x="0px" y="0px" width="100px"
	 height="100px" viewBox="0 0 100 100" style="enable-background:new 0 0 100 100;" xml:space="preserve">
<g id="Layer_7">
	<polygon style="fill:#D14A27;" points="79.02,74.33 50,100 20.98,74.33 20.98,0 79.02,0 	"/>
</g>
<g id="Layer_4">
</g>
<g id="Layer_3">
	<g>
		<path style="fill:#BABABA;" d="M20.96,58.98c6.33,8.23,14.56,2.53,15.83,3.17c1.27,0.63,1.9,1.9,1.27,4.43
			c0,0-1.98,1.95-2.53,4.43c0,0-1.27,3.8-0.63,4.43s1.62,1.36,2.59,0.9c0,0,1.93,2.11,4.38,1.62c0,0,2.37,1.27,3.95,0.9
			c0,0,2.37,1.49,4.2,0.37c1.83,1.11,4.2-0.37,4.2-0.37c1.58,0.37,3.95-0.9,3.95-0.9c2.45,0.48,4.38-1.62,4.38-1.62
			c0.96,0.46,1.95-0.27,2.59-0.9c0.63-0.63-0.63-4.43-0.63-4.43c-0.55-2.48-2.53-4.43-2.53-4.43c-0.63-2.53,0-3.8,1.27-4.43
			c1.27-0.63,9.5,5.06,15.83-3.17s0.27-15.85-0.36-17.74c0,0,1.15-14.54-0.83-19.21C72.93,10.38,67.49,6.99,50,6.99
			s-22.93,3.4-27.86,15.04c-1.98,4.67-0.83,19.21-0.83,19.21C20.68,43.13,14.62,50.75,20.96,58.98z M57.6,42.75
			c3.8-2.45,10.13-4.91,12.95-1.35c1.87,2.35,0.46,9.18-2.82,11.79c-3.28,2.61-8.39,1.03-11.58-1.42
			C52.96,49.32,53.8,45.21,57.6,42.75z M50,56.6c0,0,5.23,3.7,3.92,6.4S50,61.11,50,61.11S47.39,65.7,46.08,63
			C44.77,60.3,50,56.6,50,56.6z M29.45,41.41c2.82-3.56,9.15-1.11,12.95,1.35c3.8,2.45,4.64,6.57,1.45,9.02s-8.3,4.03-11.58,1.42
			C28.99,50.59,27.58,43.76,29.45,41.41L29.45,41.41z"/>
		<path style="fill:#666766;" d="M67.73,54.07c2.39-1.9,3.78-6.04,3.64-9.06c-0.13,2.9-1.47,6.47-3.64,8.2
			c-3.28,2.61-8.39,1.03-11.58-1.42c-1.18-0.91-1.81-2.05-1.94-3.25c-0.13,1.51,0.47,2.99,1.94,4.12
			C59.34,55.09,64.45,56.67,67.73,54.07z"/>
		<path style="fill:#666766;" d="M32.27,54.07c3.28,2.61,8.39,1.03,11.58-1.42c1.47-1.13,2.07-2.61,1.94-4.12
			c-0.13,1.2-0.75,2.34-1.94,3.25c-3.19,2.45-8.3,4.03-11.58,1.42c-2.17-1.73-3.51-5.3-3.64-8.2
			C28.49,48.02,29.88,52.16,32.27,54.07z"/>
		<path style="fill:#666766;" d="M46.08,63.87c1.31,2.7,3.92-1.89,3.92-1.89s2.61,4.59,3.92,1.89c0.21-0.43,0.24-0.89,0.16-1.35
			C54.05,62.68,54,62.85,53.92,63C52.61,65.7,50,61.11,50,61.11S47.39,65.7,46.08,63c-0.08-0.16-0.13-0.32-0.16-0.49
			C45.84,62.98,45.87,63.44,46.08,63.87z"/>
		<path style="fill:#E2E2E2;" d="M38.05,67.44c0.22-0.88,0.28-1.61,0.22-2.21c-0.03,0.41-0.09,0.84-0.22,1.34
			c0,0-1.98,1.95-2.53,4.43c0,0-0.99,2.98-0.78,4.1c0.15-1.34,0.78-3.23,0.78-3.23C36.07,69.39,38.05,67.44,38.05,67.44z"/>
		<path style="fill:#E2E2E2;" d="M21.32,42.1c0,0-0.02-0.27-0.05-0.73c-0.57,1.42-3.34,5.29-3.16,10.15
			C18.25,46.92,20.91,43.32,21.32,42.1z"/>
		<path style="fill:#E2E2E2;" d="M61.95,66.57c-0.13-0.5-0.19-0.94-0.22-1.34c-0.06,0.6,0,1.32,0.22,2.21c0,0,1.98,1.95,2.53,4.43
			c0,0,0.63,1.9,0.78,3.23c0.21-1.12-0.78-4.1-0.78-4.1C63.93,68.53,61.95,66.57,61.95,66.57z"/>
		<path style="fill:#E2E2E2;" d="M78.74,41.37c-0.03,0.46-0.05,0.73-0.05,0.73c0.41,1.22,3.06,4.82,3.21,9.42
			C82.08,46.66,79.31,42.79,78.74,41.37z"/>
		<path style="fill:#E2E2E2;" d="M22.14,22.89C27.07,11.25,32.51,7.85,50,7.85c17.49,0,22.93,3.4,27.86,15.04
			c0.88,2.08,1.14,6.12,1.16,9.96c0.02-4.08-0.21-8.59-1.16-10.82C72.93,10.38,67.49,6.99,50,6.99c-17.49,0-22.93,3.4-27.86,15.04
			c-0.95,2.24-1.18,6.74-1.16,10.82C21,29,21.26,24.97,22.14,22.89z"/>
	</g>
	<g>
	</g>
	<g>
	</g>
	<g>
	</g>
	<g>
	</g>
	<g>
	</g>
	<g>
	</g>
</g>
</svg>
